# xmcd
#
# Track frame offsets: 
#        150
#        21890
#        39775
#        55428
#        67809
#        83053
#        103612
#        122196
#        139765
#        163218
#        198223
#
# Disc length: 2885 seconds
#
# Revision: 1
# Processed by: cddbd v1.5.2PL0 Copyright (c) Steve Scherf et al.
# Submitted via: ExactAudioCopy v0.99pb5
#
DISCID=8e0b430b
DTITLE=Fillmore Slim - Funky Mama's House
DYEAR=2004
DGENRE=Blues
TTITLE0=Funky Mama's House
TTITLE1=Brown Sugar Eyes
TTITLE2=Street Walker
TTITLE3=Tabby Thomas' Place
TTITLE4=Those Lonely, Lonely Nights
TTITLE5=Ya-Ya
TTITLE6=Down At Eli's
TTITLE7=Stagger Lee
TTITLE8=Earl King
TTITLE9=Saturday Night
TTITLE10=I Cross My Heart
EXTD=YEAR: 2004
EXTT0=
EXTT1=
EXTT2=
EXTT3=
EXTT4=
EXTT5=
EXTT6=
EXTT7=
EXTT8=
EXTT9=
EXTT10=
PLAYORDER=
